<svg xmlns="http://www.w3.org/2000/svg" width="63" height="49.856" viewBox="0 0 63 49.856">
  <g id="char-6" transform="translate(1 1)">
    <g id="Grupo_1402" data-name="Grupo 1402">
      <path id="Trazado_2713" data-name="Trazado 2713" d="M57.719,15.581H7.281C5.217,17.645,4.06,18.8,2,20.862V52.238c2.06,2.064,3.217,3.217,5.281,5.281H57.719c2.06-2.064,3.217-3.217,5.281-5.281V20.862C60.936,18.8,59.778,17.645,57.719,15.581ZM15.626,36.552H9.574V28.124h6.052Zm39.8,0H49.374V28.124h6.047Z" transform="translate(-2 -9.664)" fill="none" stroke="#4da9a8" stroke-linecap="round" stroke-linejoin="round" stroke-width="2"/>
      <path id="Trazado_2714" data-name="Trazado 2714" d="M69.059,7.918H49.137V5.486L52.623,2h12.95l3.486,3.486Z" transform="translate(-28.599 -2)" fill="none" stroke="#4da9a8" stroke-linecap="round" stroke-linejoin="round" stroke-width="2"/>
      <line id="Línea_47" data-name="Línea 47" x1="33.748" transform="translate(13.626 22.945)" fill="none" stroke="#4da9a8" stroke-linecap="round" stroke-linejoin="round" stroke-width="2"/>
      <line id="Línea_48" data-name="Línea 48" x1="7.579" transform="translate(53.421 22.945)" fill="none" stroke="#4da9a8" stroke-linecap="round" stroke-linejoin="round" stroke-width="2"/>
      <line id="Línea_49" data-name="Línea 49" x1="7.574" transform="translate(0 22.945)" fill="none" stroke="#4da9a8" stroke-linecap="round" stroke-linejoin="round" stroke-width="2"/>
      <rect id="Rectángulo_828" data-name="Rectángulo 828" width="6.052" height="8.428" transform="translate(7.574 18.461)" fill="none" stroke="#4da9a8" stroke-linecap="round" stroke-linejoin="round" stroke-width="2"/>
      <rect id="Rectángulo_829" data-name="Rectángulo 829" width="6.047" height="8.428" transform="translate(47.374 18.461)" fill="none" stroke="#4da9a8" stroke-linecap="round" stroke-linejoin="round" stroke-width="2"/>
    </g>
  </g>
</svg>
