<svg id="char-9" xmlns="http://www.w3.org/2000/svg" xmlns:xlink="http://www.w3.org/1999/xlink" width="70" height="66.101" viewBox="0 0 70 66.101">
  <defs>
    <clipPath id="clip-path">
      <rect id="Rectángulo_835" data-name="Rectángulo 835" width="70" height="66.101" fill="none" stroke="#4da9a8" stroke-width="2"/>
    </clipPath>
  </defs>
  <g id="Grupo_1418" data-name="Grupo 1418" clip-path="url(#clip-path)">
    <path id="Trazado_2723" data-name="Trazado 2723" d="M72.9,68.265H66.482c-1.05,0-1.548,2.476-1.548,4.884s.595,4.169.926,4.169h2.307a1.1,1.1,0,0,0,1.072-1.366,13.834,13.834,0,0,1-.434-3.175,15.521,15.521,0,0,1,.829-4.513" transform="translate(-33.369 -35.081)" fill="none" stroke="#4da9a8" stroke-linecap="round" stroke-linejoin="round" stroke-width="2"/>
    <path id="Trazado_2724" data-name="Trazado 2724" d="M81.312,29.555l6.012.606a.571.571,0,0,1,.515.568V47.2a.571.571,0,0,1-.515.569l-6.012.606" transform="translate(-41.785 -15.188)" fill="none" stroke="#4da9a8" stroke-linecap="round" stroke-linejoin="round" stroke-width="2"/>
    <path id="Trazado_2725" data-name="Trazado 2725" d="M48.3,68.817h6.456A4.3,4.3,0,0,1,57.7,69.982L60.383,72.5a4.3,4.3,0,0,1,1.359,3.137v2.508a2.175,2.175,0,0,1-2.175,2.175H38.5a2.175,2.175,0,0,1-2.175-2.175V71.067a2.25,2.25,0,0,1,2.25-2.25h.646V65.583c0-3.711,1.264-7.993,1.264-13.662V48.373h-3.2a4.71,4.71,0,0,1-4.71-4.71v-9.4a4.711,4.711,0,0,1,4.71-4.71H56.265" transform="translate(-16.738 -15.188)" fill="none" stroke="#4da9a8" stroke-linecap="round" stroke-linejoin="round" stroke-width="2"/>
    <line id="Línea_61" data-name="Línea 61" x1="4.979" transform="translate(26.586 53.629)" fill="none" stroke="#4da9a8" stroke-linecap="round" stroke-linejoin="round" stroke-width="2"/>
    <path id="Trazado_2726" data-name="Trazado 2726" d="M64.934,98.281V95.046c0-2.4.72-5.05,1-8.156" transform="translate(-33.369 -44.652)" fill="none" stroke="#4da9a8" stroke-linecap="round" stroke-linejoin="round" stroke-width="2"/>
    <line id="Línea_62" data-name="Línea 62" y2="18.817" transform="translate(39.527 14.367)" fill="none" stroke="#4da9a8" stroke-linecap="round" stroke-linejoin="round" stroke-width="2"/>
    <line id="Línea_63" data-name="Línea 63" x1="2.789" transform="translate(43.264 18.915)" fill="none" stroke="#4da9a8" stroke-linecap="round" stroke-linejoin="round" stroke-width="2"/>
    <line id="Línea_64" data-name="Línea 64" x1="2.789" transform="translate(43.264 23.754)" fill="none" stroke="#4da9a8" stroke-linecap="round" stroke-linejoin="round" stroke-width="2"/>
    <line id="Línea_65" data-name="Línea 65" x1="2.789" transform="translate(43.264 28.594)" fill="none" stroke="#4da9a8" stroke-linecap="round" stroke-linejoin="round" stroke-width="2"/>
    <line id="Línea_66" data-name="Línea 66" x1="7.784" transform="translate(20.846 20.234)" fill="none" stroke="#4da9a8" stroke-linecap="round" stroke-linejoin="round" stroke-width="2"/>
    <line id="Línea_67" data-name="Línea 67" x1="7.784" transform="translate(20.846 23.754)" fill="none" stroke="#4da9a8" stroke-linecap="round" stroke-linejoin="round" stroke-width="2"/>
    <line id="Línea_68" data-name="Línea 68" x1="7.784" transform="translate(20.846 27.274)" fill="none" stroke="#4da9a8" stroke-linecap="round" stroke-linejoin="round" stroke-width="2"/>
    <line id="Línea_69" data-name="Línea 69" x2="16.628" transform="translate(19.585 59.505)" fill="none" stroke="#4da9a8" stroke-linecap="round" stroke-linejoin="round" stroke-width="2"/>
    <path id="Trazado_2727" data-name="Trazado 2727" d="M108,45.158h13.9l2.625,1.8-2.625,1.8H108" transform="translate(-55.499 -23.206)" fill="#fff" stroke="#4da9a8" stroke-width="2"/>
    <path id="Trazado_2728" data-name="Trazado 2728" d="M108,45.158h13.9l2.625,1.8-2.625,1.8H108" transform="translate(-55.499 -23.206)" fill="none" stroke="#4da9a8" stroke-width="2"/>
    <path id="Trazado_2729" data-name="Trazado 2729" d="M108,45.158h13.9l2.625,1.8-2.625,1.8H108" transform="translate(-55.499 -23.206)" fill="none" stroke="#4da9a8" stroke-linecap="round" stroke-linejoin="round" stroke-width="2"/>
    <line id="Línea_70" data-name="Línea 70" x1="3.426" y2="3.605" transform="translate(61.562 21.952)" fill="none" stroke="#4da9a8" stroke-linecap="round" stroke-linejoin="round" stroke-width="2"/>
    <line id="Línea_71" data-name="Línea 71" x1="3.426" y2="3.605" transform="translate(56.408 21.952)" fill="none" stroke="#4da9a8" stroke-linecap="round" stroke-linejoin="round" stroke-width="2"/>
    <line id="Línea_72" data-name="Línea 72" x2="60.79" y2="60.79" transform="translate(0.972 0.972)" fill="none" stroke="#4da9a8" stroke-linecap="round" stroke-linejoin="round" stroke-width="2"/>
    <line id="Línea_73" data-name="Línea 73" x1="60.79" y2="60.79" transform="translate(0.972 0.972)" fill="none" stroke="#4da9a8" stroke-linecap="round" stroke-linejoin="round" stroke-width="2"/>
    <path id="Trazado_2730" data-name="Trazado 2730" d="M94.738,34.457h2.588a1.576,1.576,0,0,1,.857.253l2.535,1.644a1.021,1.021,0,0,1,.466.857v8.542a1.021,1.021,0,0,1-.466.858l-2.535,1.644a1.576,1.576,0,0,1-.857.253H94.738" transform="translate(-48.685 -17.707)" fill="none" stroke="#4da9a8" stroke-linecap="round" stroke-linejoin="round" stroke-width="2"/>
  </g>
</svg>
