<svg id="char-10" xmlns="http://www.w3.org/2000/svg" xmlns:xlink="http://www.w3.org/1999/xlink" width="71.595" height="61" viewBox="0 0 71.595 61">
  <defs>
    <clipPath id="clip-path">
      <rect id="Rectángulo_840" data-name="Rectángulo 840" width="71.595" height="61" fill="none" stroke="#4da9a8" stroke-width="2"/>
    </clipPath>
  </defs>
  <g id="Grupo_1424" data-name="Grupo 1424" clip-path="url(#clip-path)">
    <path id="Trazado_2736" data-name="Trazado 2736" d="M54.733,55.034a35.809,35.809,0,0,1,.674-4.061H52.651c-.738,0-1.164,2.131-1.3,4.061" transform="translate(-25.818 -25.63)" fill="none" stroke="#4da9a8" stroke-linecap="round" stroke-linejoin="round" stroke-width="2"/>
    <line id="Línea_76" data-name="Línea 76" x1="24.423" transform="translate(26.833 25.343)" fill="none" stroke="#4da9a8" stroke-linecap="round" stroke-linejoin="round" stroke-width="2"/>
    <path id="Trazado_2737" data-name="Trazado 2737" d="M103.092,2l5.355.53a.5.5,0,0,1,.45.5V25.322a.5.5,0,0,1-.45.5l-5.355.53" transform="translate(-51.836 -1.006)" fill="none" stroke="#4da9a8" stroke-linecap="round" stroke-linejoin="round" stroke-width="2"/>
    <path id="Trazado_2738" data-name="Trazado 2738" d="M19.648,30.409V26.349H6.118A4.118,4.118,0,0,1,2,22.231V6.118A4.118,4.118,0,0,1,6.118,2H52.262" transform="translate(-1.006 -1.006)" fill="none" stroke="#4da9a8" stroke-linecap="round" stroke-linejoin="round" stroke-width="2"/>
    <path id="Trazado_2739" data-name="Trazado 2739" d="M114.769,12.877h4.093a1.378,1.378,0,0,1,.748.221l2.217,1.437a.894.894,0,0,1,.407.75V24a.894.894,0,0,1-.407.75l-2.217,1.437a1.374,1.374,0,0,1-.748.222h-4.093" transform="translate(-57.707 -6.475)" fill="none" stroke="#4da9a8" stroke-linecap="round" stroke-linejoin="round" stroke-width="2"/>
    <line id="Línea_77" data-name="Línea 77" y2="23.019" transform="translate(45.451 2.324)" fill="none" stroke="#4da9a8" stroke-linecap="round" stroke-linejoin="round" stroke-width="2"/>
    <line id="Línea_78" data-name="Línea 78" x1="4.607" transform="translate(48.685 30.398)" fill="none" stroke="#4da9a8" stroke-linecap="round" stroke-linejoin="round" stroke-width="2"/>
    <line id="Línea_79" data-name="Línea 79" x1="4.607" transform="translate(48.685 35.089)" fill="none" stroke="#4da9a8" stroke-linecap="round" stroke-linejoin="round" stroke-width="2"/>
    <line id="Línea_80" data-name="Línea 80" x1="4.607" transform="translate(48.685 39.78)" fill="none" stroke="#4da9a8" stroke-linecap="round" stroke-linejoin="round" stroke-width="2"/>
    <line id="Línea_81" data-name="Línea 81" x1="4.607" transform="translate(48.685 44.471)" fill="none" stroke="#4da9a8" stroke-linecap="round" stroke-linejoin="round" stroke-width="2"/>
    <line id="Línea_82" data-name="Línea 82" x1="4.607" transform="translate(48.685 49.162)" fill="none" stroke="#4da9a8" stroke-linecap="round" stroke-linejoin="round" stroke-width="2"/>
    <line id="Línea_83" data-name="Línea 83" x2="5.894" transform="translate(64.707 13.169)" fill="none" stroke="#4da9a8" stroke-linecap="round" stroke-linejoin="round" stroke-width="2"/>
    <path id="Trazado_2740" data-name="Trazado 2740" d="M11.943,56.813a9.461,9.461,0,0,0,4.619-3.1c2.38-2.587,3.587-2.742,6.986-2.742h1.1" transform="translate(-6.005 -25.63)" fill="none" stroke="#4da9a8" stroke-linecap="round" stroke-linejoin="round" stroke-width="2"/>
    <path id="Trazado_2741" data-name="Trazado 2741" d="M11.943,82.635c3.708,0,4.262,1.659,9.225,1.659,2.555,0,8.308-.024,8.308-.024,2.794,0,4.15-1.033,4.481-4.1L35,71.927" transform="translate(-6.005 -36.166)" fill="none" stroke="#4da9a8" stroke-linecap="round" stroke-linejoin="round" stroke-width="2"/>
    <path id="Trazado_2742" data-name="Trazado 2742" d="M30.661,59.14H46.155A2.463,2.463,0,0,1,48.618,61.6v1.431A2.463,2.463,0,0,1,46.155,65.5H42.221" transform="translate(-15.417 -29.736)" fill="none" stroke="#4da9a8" stroke-linecap="round" stroke-linejoin="round" stroke-width="2"/>
    <path id="Trazado_2743" data-name="Trazado 2743" d="M3.244,57.411H7.569V77.947H3.244" transform="translate(-1.631 -28.867)" fill="none" stroke="#4da9a8" stroke-linecap="round" stroke-linejoin="round" stroke-width="2"/>
    <line id="Línea_84" data-name="Línea 84" y1="28.064" transform="translate(48.38 25.343)" fill="none" stroke="#4da9a8" stroke-linecap="round" stroke-linejoin="round" stroke-width="2"/>
    <path id="Trazado_2744" data-name="Trazado 2744" d="M50.33,50.437V73.166l-8.1,5.565H28.662L30.843,73.2l-8.308.025-1.9,5.509H14.662V85.1H46.417l9.335-6.6h8.682V49.907" transform="translate(-7.372 -25.094)" fill="none" stroke="#4da9a8" stroke-linecap="round" stroke-linejoin="round" stroke-width="2"/>
    <line id="Línea_85" data-name="Línea 85" y2="24.348" transform="translate(9.343 0.995)" fill="none" stroke="#4da9a8" stroke-linecap="round" stroke-linejoin="round" stroke-width="2"/>
    <path id="Trazado_2745" data-name="Trazado 2745" d="M25.406,19.111c2.5-2.184,5.851-4.271,9.523-3.865,4.273.473,5.835,3.975,10.066,4.4,2.333.237,5.543-.455,9.646-4.194" transform="translate(-12.774 -7.64)" fill="none" stroke="#4da9a8" stroke-linecap="round" stroke-linejoin="round" stroke-width="2"/>
    <path id="Trazado_2746" data-name="Trazado 2746" d="M26,33.152c2.609-2.581,5.781-4.679,9.226-4.4,4.152.331,5.722,3.824,10.066,4.4,3.594.479,6.992-1.325,9.8-3.584" transform="translate(-13.075 -14.443)" fill="none" stroke="#4da9a8" stroke-linecap="round" stroke-linejoin="round" stroke-width="2"/>
  </g>
</svg>
